<?xml version="1.0" standalone="no"?>
<!DOCTYPE svg PUBLIC "-//W3C//DTD SVG 20010904//EN"
 "http://www.w3.org/TR/2001/REC-SVG-20010904/DTD/svg10.dtd">
<svg version="1.0" xmlns="http://www.w3.org/2000/svg"
 width="300.000000pt" height="300.000000pt" viewBox="0 0 300.000000 300.000000"
 preserveAspectRatio="xMidYMid meet">

<g transform="translate(0.000000,300.000000) scale(0.100000,-0.100000)"
fill="#000000" stroke="none">
<path d="M1325 614 c-26 -26 -16 -77 18 -88 38 -14 61 2 65 45 5 52 -47 79
-83 43z"/>
<path d="M20 375 l0 -235 45 0 44 0 3 83 3 82 68 7 c117 11 172 66 164 161 -9
103 -64 137 -219 137 l-108 0 0 -235z m217 129 c38 -52 0 -107 -75 -108 l-47
-1 -3 54 c-5 79 -1 84 60 79 34 -4 56 -12 65 -24z"/>
<path d="M1800 520 c0 -47 -2 -50 -25 -50 -22 0 -25 -4 -25 -35 0 -31 3 -35
25 -35 25 0 25 -1 25 -92 0 -109 11 -136 64 -162 30 -15 46 -17 75 -10 33 8
36 13 39 47 3 36 3 37 -32 37 -47 0 -58 22 -54 108 l3 67 43 3 c41 3 42 4 42
37 0 33 -1 34 -42 37 l-43 3 -3 48 -3 47 -45 0 -44 0 0 -50z"/>
<path d="M2800 520 c0 -43 -3 -50 -20 -50 -16 0 -20 -7 -20 -35 0 -28 4 -35
19 -35 17 0 19 -10 23 -98 2 -71 8 -106 21 -125 20 -31 80 -50 126 -41 28 6
31 10 31 45 0 36 -2 39 -28 39 -44 0 -52 16 -52 102 l0 78 40 0 c39 0 40 1 40
35 0 34 -1 35 -40 35 l-40 0 0 50 0 50 -50 0 -50 0 0 -50z"/>
<path d="M462 464 c-83 -42 -117 -156 -73 -241 36 -71 119 -105 202 -83 41 11
99 53 99 72 0 4 -16 14 -35 23 -33 13 -37 13 -55 -5 -29 -29 -85 -26 -115 5
-14 13 -25 29 -25 34 0 6 48 11 123 13 l122 3 -2 43 c-2 50 -26 96 -65 125
-38 28 -131 34 -176 11z m134 -79 c14 -14 22 -30 19 -35 -8 -14 -155 -13 -155
0 0 6 11 22 25 35 32 33 78 33 111 0z"/>
<path d="M891 454 c-30 -25 -31 -25 -31 -5 0 19 -6 21 -50 21 l-50 0 2 -162 3
-163 48 -3 47 -3 0 95 c0 85 2 98 23 122 16 18 34 27 55 28 31 1 32 2 32 49 0
43 -2 47 -24 47 -14 0 -38 -12 -55 -26z"/>
<path d="M1052 461 c-39 -25 -56 -64 -47 -108 7 -41 42 -68 105 -83 55 -13 63
-20 54 -44 -9 -23 -54 -20 -80 5 l-23 21 -35 -21 c-30 -19 -34 -25 -24 -40 31
-50 118 -72 184 -46 49 18 74 54 74 103 0 44 -28 70 -100 95 -66 22 -80 40
-48 61 13 8 24 5 48 -12 28 -21 32 -22 61 -7 18 10 29 23 27 32 -10 53 -136
81 -196 44z"/>
<path d="M1540 473 c-8 -3 -27 -17 -42 -31 -22 -20 -28 -35 -28 -67 0 -52 26
-79 101 -103 42 -13 54 -22 54 -37 0 -28 -45 -32 -75 -7 -23 18 -26 19 -57 4
-37 -18 -41 -32 -15 -55 60 -54 158 -58 215 -7 26 23 32 36 32 69 0 52 -25 77
-96 101 -60 21 -83 45 -59 60 23 15 38 12 60 -10 19 -19 21 -19 55 -3 37 18
39 21 27 39 -26 40 -121 66 -172 47z"/>
<path d="M2110 469 c-63 -25 -100 -85 -100 -161 0 -122 101 -200 218 -168 40
10 102 53 102 70 0 4 -17 14 -37 23 -34 13 -38 13 -57 -4 -26 -25 -77 -24
-110 2 -51 40 -37 48 97 51 l122 3 -3 44 c-4 58 -34 107 -83 131 -41 21 -108
25 -149 9z m120 -79 c39 -39 27 -50 -55 -50 -84 0 -96 12 -49 49 34 27 78 27
104 1z"/>
<path d="M2532 460 c-39 -24 -42 -24 -42 -5 0 11 -12 15 -45 15 l-45 0 0 -165
0 -165 44 0 43 0 5 103 c3 56 9 109 12 119 11 26 60 42 86 28 31 -17 40 -51
40 -156 l0 -94 45 0 45 0 0 120 c0 82 -5 132 -14 155 -26 62 -110 84 -174 45z"/>
<path d="M1320 305 l0 -165 45 0 45 0 0 165 0 165 -45 0 -45 0 0 -165z"/>
</g>
</svg>
